# xmcd CD database file
# Copyright (C) 1997 Ti Kan
#
# Track frame offsets:
#  150
#  17355
#  27390
#  40687
#  50870
#  61122
#  72955
#  82637
#  95220
#  104027
#  115827
#  126317
#  135915
#  147902
#  158160
#  171657
#  184477
#  196482
#  207097
#  220635
#
# Disc length: 3160 seconds
#
# Revision: 1
# Processed by: cddbd v1.4b41PL1 Copyright (c) Steve Scherf et al.
# Submitted via: CDWizzard Release:4.32
#
DISCID=230c5614
DTITLE=Ronnie McDowell - ELVIS - A Tribute To The King
DYEAR=1900
DGENRE=
TTITLE0=Love Me Tender
TTITLE1=Got A Lot O' Livin To Do
TTITLE2=Love Me
TTITLE3=King Creole
TTITLE4=Treat Me Nice
TTITLE5=Crying In The Chapel
TTITLE6=His Latest Flame
TTITLE7=Don't
TTITLE8=You're The Devil In Disguise
TTITLE9=It Hurts Me
TTITLE10=Lawdy Miss Clawdy
TTITLE11=A Long As I Have You
TTITLE12=I Was The One
TTITLE13=My Baby Left Me
TTITLE14=One Night With You
TTITLE15=Heartbreak Hotel
TTITLE16=Mean Woman Blues
TTITLE17=A Fool Such As I
TTITLE18=One Broken Heart For Sale
TTITLE19=Tupelo's Too Far
EXTD=
EXTT0=
EXTT1=
EXTT2=
EXTT3=
EXTT4=
EXTT5=
EXTT6=
EXTT7=
EXTT8=
EXTT9=
EXTT10=
EXTT11=
EXTT12=
EXTT13=
EXTT14=
EXTT15=
EXTT16=
EXTT17=
EXTT18=
EXTT19=
PLAYORDER=
